<svg xmlns="http://www.w3.org/2000/svg" xml:space="preserve" xmlns:xlink="http://www.w3.org/1999/xlink" style="max-width: 100%;height: auto;" width="1100.75" height="1237.34375" viewBox="0 0 1100.75 1237.34375">
<defs><mask id="qrmask"><g fill="#ffffff"><g>
<g transform="translate(329.875,161.875) scale(3.605) rotate(9)"><rect x="0.5" y="0.5" width="5" height="5"/></g>
<g transform="translate(371.875,161.875) scale(3.605) rotate(8)"><rect x="0.5" y="0.5" width="5" height="5"/></g>
<g transform="translate(476.875,161.875) scale(3.605) rotate(-3)"><rect x="0.5" y="0.5" width="5" height="5"/></g>
<g transform="translate(581.875,161.875) scale(3.605) rotate(9)"><rect x="0.5" y="0.5" width="5" height="5"/></g>
<g transform="translate(602.875,161.875) scale(3.605) rotate(-3)"><rect x="0.5" y="0.5" width="5" height="5"/></g>
<g transform="translate(644.875,161.875) scale(3.605) rotate(-10)"><rect x="0.5" y="0.5" width="5" height="5"/></g>
<g transform="translate(686.875,161.875) scale(3.605) rotate(-5)"><rect x="0.5" y="0.5" width="5" height="5"/></g>
<g transform="translate(329.875,182.875) scale(3.605) rotate(5)"><rect x="0.5" y="0.5" width="5" height="5"/></g>
<g transform="translate(350.875,182.875) scale(3.605) rotate(8)"><rect x="0.5" y="0.5" width="5" height="5"/></g>
<g transform="translate(413.875,182.875) scale(3.605) rotate(2)"><rect x="0.5" y="0.5" width="5" height="5"/></g>
<g transform="translate(476.875,182.875) scale(3.605) rotate(3)"><rect x="0.5" y="0.5" width="5" height="5"/></g>
<g transform="translate(497.875,182.875) scale(3.605) rotate(9)"><rect x="0.5" y="0.5" width="5" height="5"/></g>
<g transform="translate(539.875,182.875) scale(3.605) rotate(7)"><rect x="0.5" y="0.5" width="5" height="5"/></g>
<g transform="translate(560.875,182.875) scale(3.605) rotate(0)"><rect x="0.5" y="0.5" width="5" height="5"/></g>
<g transform="translate(581.875,182.875) scale(3.605) rotate(5)"><rect x="0.5" y="0.5" width="5" height="5"/></g>
<g transform="translate(665.875,182.875) scale(3.605) rotate(-3)"><rect x="0.5" y="0.5" width="5" height="5"/></g>
<g transform="translate(686.875,182.875) scale(3.605) rotate(7)"><rect x="0.5" y="0.5" width="5" height="5"/></g>
<g transform="translate(707.875,182.875) scale(3.605) rotate(0)"><rect x="0.5" y="0.5" width="5" height="5"/></g>
<g transform="translate(728.875,182.875) scale(3.605) rotate(-8)"><rect x="0.5" y="0.5" width="5" height="5"/></g>
<g transform="translate(749.875,182.875) scale(3.605) rotate(6)"><rect x="0.5" y="0.5" width="5" height="5"/></g>
<g transform="translate(329.875,203.875) scale(3.605) rotate(-8)"><rect x="0.5" y="0.5" width="5" height="5"/></g>
<g transform="translate(392.875,203.875) scale(3.605) rotate(5)"><rect x="0.5" y="0.5" width="5" height="5"/></g>
<g transform="translate(413.875,203.875) scale(3.605) rotate(-7)"><rect x="0.5" y="0.5" width="5" height="5"/></g>
<g transform="translate(455.875,203.875) scale(3.605) rotate(8)"><rect x="0.5" y="0.5" width="5" height="5"/></g>
<g transform="translate(497.875,203.875) scale(3.605) rotate(6)"><rect x="0.5" y="0.5" width="5" height="5"/></g>
<g transform="translate(539.875,203.875) scale(3.605) rotate(10)"><rect x="0.5" y="0.5" width="5" height="5"/></g>
<g transform="translate(560.875,203.875) scale(3.605) rotate(5)"><rect x="0.5" y="0.5" width="5" height="5"/></g>
<g transform="translate(581.875,203.875) scale(3.605) rotate(-9)"><rect x="0.5" y="0.5" width="5" height="5"/></g>
<g transform="translate(602.875,203.875) scale(3.605) rotate(5)"><rect x="0.5" y="0.5" width="5" height="5"/></g>
<g transform="translate(644.875,203.875) scale(3.605) rotate(10)"><rect x="0.5" y="0.5" width="5" height="5"/></g>
<g transform="translate(665.875,203.875) scale(3.605) rotate(-8)"><rect x="0.5" y="0.5" width="5" height="5"/></g>
<g transform="translate(749.875,203.875) scale(3.605) rotate(1)"><rect x="0.5" y="0.5" width="5" height="5"/></g>
<g transform="translate(371.875,224.875) scale(3.605) rotate(8)"><rect x="0.5" y="0.5" width="5" height="5"/></g>
<g transform="translate(392.875,224.875) scale(3.605) rotate(0)"><rect x="0.5" y="0.5" width="5" height="5"/></g>
<g transform="translate(434.875,224.875) scale(3.605) rotate(-1)"><rect x="0.5" y="0.5" width="5" height="5"/></g>
<g transform="translate(497.875,224.875) scale(3.605) rotate(-9)"><rect x="0.5" y="0.5" width="5" height="5"/></g>
<g transform="translate(602.875,224.875) scale(3.605) rotate(-5)"><rect x="0.5" y="0.5" width="5" height="5"/></g>
<g transform="translate(623.875,224.875) scale(3.605) rotate(9)"><rect x="0.5" y="0.5" width="5" height="5"/></g>
<g transform="translate(644.875,224.875) scale(3.605) rotate(-10)"><rect x="0.5" y="0.5" width="5" height="5"/></g>
<g transform="translate(665.875,224.875) scale(3.605) rotate(-8)"><rect x="0.5" y="0.5" width="5" height="5"/></g>
<g transform="translate(686.875,224.875) scale(3.605) rotate(-10)"><rect x="0.5" y="0.5" width="5" height="5"/></g>
<g transform="translate(728.875,224.875) scale(3.605) rotate(3)"><rect x="0.5" y="0.5" width="5" height="5"/></g>
<g transform="translate(350.875,245.875) scale(3.605) rotate(-4)"><rect x="0.5" y="0.5" width="5" height="5"/></g>
<g transform="translate(371.875,245.875) scale(3.605) rotate(6)"><rect x="0.5" y="0.5" width="5" height="5"/></g>
<g transform="translate(455.875,245.875) scale(3.605) rotate(-10)"><rect x="0.5" y="0.5" width="5" height="5"/></g>
<g transform="translate(497.875,245.875) scale(3.605) rotate(-2)"><rect x="0.5" y="0.5" width="5" height="5"/></g>
<g transform="translate(518.875,245.875) scale(3.605) rotate(-7)"><rect x="0.5" y="0.5" width="5" height="5"/></g>
<g transform="translate(539.875,245.875) scale(3.605) rotate(4)"><rect x="0.5" y="0.5" width="5" height="5"/></g>
<g transform="translate(644.875,245.875) scale(3.605) rotate(4)"><rect x="0.5" y="0.5" width="5" height="5"/></g>
<g transform="translate(665.875,245.875) scale(3.605) rotate(9)"><rect x="0.5" y="0.5" width="5" height="5"/></g>
<g transform="translate(329.875,266.875) scale(3.605) rotate(-6)"><rect x="0.5" y="0.5" width="5" height="5"/></g>
<g transform="translate(350.875,266.875) scale(3.605) rotate(0)"><rect x="0.5" y="0.5" width="5" height="5"/></g>
<g transform="translate(392.875,266.875) scale(3.605) rotate(-1)"><rect x="0.5" y="0.5" width="5" height="5"/></g>
<g transform="translate(434.875,266.875) scale(3.605) rotate(0)"><rect x="0.5" y="0.5" width="5" height="5"/></g>
<g transform="translate(455.875,266.875) scale(3.605) rotate(-7)"><rect x="0.5" y="0.5" width="5" height="5"/></g>
<g transform="translate(518.875,266.875) scale(3.605) rotate(1)"><rect x="0.5" y="0.5" width="5" height="5"/></g>
<g transform="translate(581.875,266.875) scale(3.605) rotate(7)"><rect x="0.5" y="0.5" width="5" height="5"/></g>
<g transform="translate(602.875,266.875) scale(3.605) rotate(3)"><rect x="0.5" y="0.5" width="5" height="5"/></g>
<g transform="translate(665.875,266.875) scale(3.605) rotate(-9)"><rect x="0.5" y="0.5" width="5" height="5"/></g>
<g transform="translate(728.875,266.875) scale(3.605) rotate(6)"><rect x="0.5" y="0.5" width="5" height="5"/></g>
<g transform="translate(749.875,266.875) scale(3.605) rotate(10)"><rect x="0.5" y="0.5" width="5" height="5"/></g>
<g transform="translate(329.875,287.875) scale(3.605) rotate(6)"><rect x="0.5" y="0.5" width="5" height="5"/></g>
<g transform="translate(371.875,287.875) scale(3.605) rotate(8)"><rect x="0.5" y="0.5" width="5" height="5"/></g>
<g transform="translate(413.875,287.875) scale(3.605) rotate(-7)"><rect x="0.5" y="0.5" width="5" height="5"/></g>
<g transform="translate(455.875,287.875) scale(3.605) rotate(7)"><rect x="0.5" y="0.5" width="5" height="5"/></g>
<g transform="translate(497.875,287.875) scale(3.605) rotate(-5)"><rect x="0.5" y="0.5" width="5" height="5"/></g>
<g transform="translate(539.875,287.875) scale(3.605) rotate(-1)"><rect x="0.5" y="0.5" width="5" height="5"/></g>
<g transform="translate(581.875,287.875) scale(3.605) rotate(2)"><rect x="0.5" y="0.5" width="5" height="5"/></g>
<g transform="translate(623.875,287.875) scale(3.605) rotate(1)"><rect x="0.5" y="0.5" width="5" height="5"/></g>
<g transform="translate(665.875,287.875) scale(3.605) rotate(1)"><rect x="0.5" y="0.5" width="5" height="5"/></g>
<g transform="translate(707.875,287.875) scale(3.605) rotate(1)"><rect x="0.5" y="0.5" width="5" height="5"/></g>
<g transform="translate(749.875,287.875) scale(3.605) rotate(-3)"><rect x="0.5" y="0.5" width="5" height="5"/></g>
<g transform="translate(329.875,308.875) scale(3.605) rotate(8)"><rect x="0.5" y="0.5" width="5" height="5"/></g>
<g transform="translate(350.875,308.875) scale(3.605) rotate(6)"><rect x="0.5" y="0.5" width="5" height="5"/></g>
<g transform="translate(371.875,308.875) scale(3.605) rotate(-10)"><rect x="0.5" y="0.5" width="5" height="5"/></g>
<g transform="translate(392.875,308.875) scale(3.605) rotate(0)"><rect x="0.5" y="0.5" width="5" height="5"/></g>
<g transform="translate(413.875,308.875) scale(3.605) rotate(10)"><rect x="0.5" y="0.5" width="5" height="5"/></g>
<g transform="translate(455.875,308.875) scale(3.605) rotate(8)"><rect x="0.5" y="0.5" width="5" height="5"/></g>
<g transform="translate(476.875,308.875) scale(3.605) rotate(-6)"><rect x="0.5" y="0.5" width="5" height="5"/></g>
<g transform="translate(518.875,308.875) scale(3.605) rotate(-5)"><rect x="0.5" y="0.5" width="5" height="5"/></g>
<g transform="translate(539.875,308.875) scale(3.605) rotate(8)"><rect x="0.5" y="0.5" width="5" height="5"/></g>
<g transform="translate(560.875,308.875) scale(3.605) rotate(-4)"><rect x="0.5" y="0.5" width="5" height="5"/></g>
<g transform="translate(602.875,308.875) scale(3.605) rotate(-1)"><rect x="0.5" y="0.5" width="5" height="5"/></g>
<g transform="translate(644.875,308.875) scale(3.605) rotate(-2)"><rect x="0.5" y="0.5" width="5" height="5"/></g>
<g transform="translate(707.875,308.875) scale(3.605) rotate(-5)"><rect x="0.5" y="0.5" width="5" height="5"/></g>
<g transform="translate(749.875,308.875) scale(3.605) rotate(-4)"><rect x="0.5" y="0.5" width="5" height="5"/></g>
<g transform="translate(203.875,329.875) scale(3.605) rotate(5)"><rect x="0.5" y="0.5" width="5" height="5"/></g>
<g transform="translate(224.875,329.875) scale(3.605) rotate(-5)"><rect x="0.5" y="0.5" width="5" height="5"/></g>
<g transform="translate(245.875,329.875) scale(3.605) rotate(-8)"><rect x="0.5" y="0.5" width="5" height="5"/></g>
<g transform="translate(287.875,329.875) scale(3.605) rotate(-10)"><rect x="0.5" y="0.5" width="5" height="5"/></g>
<g transform="translate(329.875,329.875) scale(3.605) rotate(-3)"><rect x="0.5" y="0.5" width="5" height="5"/></g>
<g transform="translate(350.875,329.875) scale(3.605) rotate(6)"><rect x="0.5" y="0.5" width="5" height="5"/></g>
<g transform="translate(371.875,329.875) scale(3.605) rotate(-2)"><rect x="0.5" y="0.5" width="5" height="5"/></g>
<g transform="translate(392.875,329.875) scale(3.605) rotate(-4)"><rect x="0.5" y="0.5" width="5" height="5"/></g>
<g transform="translate(413.875,329.875) scale(3.605) rotate(1)"><rect x="0.5" y="0.5" width="5" height="5"/></g>
<g transform="translate(455.875,329.875) scale(3.605) rotate(-5)"><rect x="0.5" y="0.5" width="5" height="5"/></g>
<g transform="translate(476.875,329.875) scale(3.605) rotate(-6)"><rect x="0.5" y="0.5" width="5" height="5"/></g>
<g transform="translate(560.875,329.875) scale(3.605) rotate(-3)"><rect x="0.5" y="0.5" width="5" height="5"/></g>
<g transform="translate(581.875,329.875) scale(3.605) rotate(-7)"><rect x="0.5" y="0.5" width="5" height="5"/></g>
<g transform="translate(644.875,329.875) scale(3.605) rotate(8)"><rect x="0.5" y="0.5" width="5" height="5"/></g>
<g transform="translate(770.875,329.875) scale(3.605) rotate(6)"><rect x="0.5" y="0.5" width="5" height="5"/></g>
<g transform="translate(791.875,329.875) scale(3.605) rotate(-7)"><rect x="0.5" y="0.5" width="5" height="5"/></g>
<g transform="translate(812.875,329.875) scale(3.605) rotate(-4)"><rect x="0.5" y="0.5" width="5" height="5"/></g>
<g transform="translate(875.875,329.875) scale(3.605) rotate(3)"><rect x="0.5" y="0.5" width="5" height="5"/></g>
<g transform="translate(896.875,329.875) scale(3.605) rotate(1)"><rect x="0.5" y="0.5" width="5" height="5"/></g>
<g transform="translate(917.875,329.875) scale(3.605) rotate(0)"><rect x="0.5" y="0.5" width="5" height="5"/></g>
<g transform="translate(161.875,350.875) scale(3.605) rotate(-6)"><rect x="0.5" y="0.5" width="5" height="5"/></g>
<g transform="translate(182.875,350.875) scale(3.605) rotate(9)"><rect x="0.5" y="0.5" width="5" height="5"/></g>
<g transform="translate(224.875,350.875) scale(3.605) rotate(-8)"><rect x="0.5" y="0.5" width="5" height="5"/></g>
<g transform="translate(245.875,350.875) scale(3.605) rotate(-7)"><rect x="0.5" y="0.5" width="5" height="5"/></g>
<g transform="translate(329.875,350.875) scale(3.605) rotate(-4)"><rect x="0.5" y="0.5" width="5" height="5"/></g>
<g transform="translate(371.875,350.875) scale(3.605) rotate(-6)"><rect x="0.5" y="0.5" width="5" height="5"/></g>
<g transform="translate(392.875,350.875) scale(3.605) rotate(-3)"><rect x="0.5" y="0.5" width="5" height="5"/></g>
<g transform="translate(497.875,350.875) scale(3.605) rotate(-9)"><rect x="0.5" y="0.5" width="5" height="5"/></g>
<g transform="translate(560.875,350.875) scale(3.605) rotate(8)"><rect x="0.5" y="0.5" width="5" height="5"/></g>
<g transform="translate(644.875,350.875) scale(3.605) rotate(-1)"><rect x="0.5" y="0.5" width="5" height="5"/></g>
<g transform="translate(665.875,350.875) scale(3.605) rotate(-6)"><rect x="0.5" y="0.5" width="5" height="5"/></g>
<g transform="translate(686.875,350.875) scale(3.605) rotate(-1)"><rect x="0.5" y="0.5" width="5" height="5"/></g>
<g transform="translate(707.875,350.875) scale(3.605) rotate(-6)"><rect x="0.5" y="0.5" width="5" height="5"/></g>
<g transform="translate(728.875,350.875) scale(3.605) rotate(3)"><rect x="0.5" y="0.5" width="5" height="5"/></g>
<g transform="translate(749.875,350.875) scale(3.605) rotate(3)"><rect x="0.5" y="0.5" width="5" height="5"/></g>
<g transform="translate(791.875,350.875) scale(3.605) rotate(-4)"><rect x="0.5" y="0.5" width="5" height="5"/></g>
<g transform="translate(854.875,350.875) scale(3.605) rotate(-6)"><rect x="0.5" y="0.5" width="5" height="5"/></g>
<g transform="translate(875.875,350.875) scale(3.605) rotate(1)"><rect x="0.5" y="0.5" width="5" height="5"/></g>
<g transform="translate(182.875,371.875) scale(3.605) rotate(-5)"><rect x="0.5" y="0.5" width="5" height="5"/></g>
<g transform="translate(203.875,371.875) scale(3.605) rotate(4)"><rect x="0.5" y="0.5" width="5" height="5"/></g>
<g transform="translate(224.875,371.875) scale(3.605) rotate(-9)"><rect x="0.5" y="0.5" width="5" height="5"/></g>
<g transform="translate(266.875,371.875) scale(3.605) rotate(8)"><rect x="0.5" y="0.5" width="5" height="5"/></g>
<g transform="translate(287.875,371.875) scale(3.605) rotate(0)"><rect x="0.5" y="0.5" width="5" height="5"/></g>
<g transform="translate(455.875,371.875) scale(3.605) rotate(6)"><rect x="0.5" y="0.5" width="5" height="5"/></g>
<g transform="translate(476.875,371.875) scale(3.605) rotate(0)"><rect x="0.5" y="0.5" width="5" height="5"/></g>
<g transform="translate(497.875,371.875) scale(3.605) rotate(-9)"><rect x="0.5" y="0.5" width="5" height="5"/></g>
<g transform="translate(539.875,371.875) scale(3.605) rotate(-6)"><rect x="0.5" y="0.5" width="5" height="5"/></g>
<g transform="translate(623.875,371.875) scale(3.605) rotate(-7)"><rect x="0.5" y="0.5" width="5" height="5"/></g>
<g transform="translate(644.875,371.875) scale(3.605) rotate(4)"><rect x="0.5" y="0.5" width="5" height="5"/></g>
<g transform="translate(665.875,371.875) scale(3.605) rotate(8)"><rect x="0.5" y="0.5" width="5" height="5"/></g>
<g transform="translate(686.875,371.875) scale(3.605) rotate(0)"><rect x="0.5" y="0.5" width="5" height="5"/></g>
<g transform="translate(707.875,371.875) scale(3.605) rotate(0)"><rect x="0.5" y="0.5" width="5" height="5"/></g>
<g transform="translate(791.875,371.875) scale(3.605) rotate(-9)"><rect x="0.5" y="0.5" width="5" height="5"/></g>
<g transform="translate(812.875,371.875) scale(3.605) rotate(-3)"><rect x="0.5" y="0.5" width="5" height="5"/></g>
<g transform="translate(875.875,371.875) scale(3.605) rotate(-10)"><rect x="0.5" y="0.5" width="5" height="5"/></g>
<g transform="translate(896.875,371.875) scale(3.605) rotate(-9)"><rect x="0.5" y="0.5" width="5" height="5"/></g>
<g transform="translate(917.875,371.875) scale(3.605) rotate(9)"><rect x="0.5" y="0.5" width="5" height="5"/></g>
<g transform="translate(182.875,392.875) scale(3.605) rotate(7)"><rect x="0.5" y="0.5" width="5" height="5"/></g>
<g transform="translate(203.875,392.875) scale(3.605) rotate(-4)"><rect x="0.5" y="0.5" width="5" height="5"/></g>
<g transform="translate(266.875,392.875) scale(3.605) rotate(-7)"><rect x="0.5" y="0.5" width="5" height="5"/></g>
<g transform="translate(329.875,392.875) scale(3.605) rotate(8)"><rect x="0.5" y="0.5" width="5" height="5"/></g>
<g transform="translate(518.875,392.875) scale(3.605) rotate(-4)"><rect x="0.5" y="0.5" width="5" height="5"/></g>
<g transform="translate(539.875,392.875) scale(3.605) rotate(3)"><rect x="0.5" y="0.5" width="5" height="5"/></g>
<g transform="translate(581.875,392.875) scale(3.605) rotate(4)"><rect x="0.5" y="0.5" width="5" height="5"/></g>
<g transform="translate(602.875,392.875) scale(3.605) rotate(-9)"><rect x="0.5" y="0.5" width="5" height="5"/></g>
<g transform="translate(623.875,392.875) scale(3.605) rotate(5)"><rect x="0.5" y="0.5" width="5" height="5"/></g>
<g transform="translate(665.875,392.875) scale(3.605) rotate(9)"><rect x="0.5" y="0.5" width="5" height="5"/></g>
<g transform="translate(707.875,392.875) scale(3.605) rotate(2)"><rect x="0.5" y="0.5" width="5" height="5"/></g>
<g transform="translate(749.875,392.875) scale(3.605) rotate(9)"><rect x="0.5" y="0.5" width="5" height="5"/></g>
<g transform="translate(791.875,392.875) scale(3.605) rotate(6)"><rect x="0.5" y="0.5" width="5" height="5"/></g>
<g transform="translate(812.875,392.875) scale(3.605) rotate(10)"><rect x="0.5" y="0.5" width="5" height="5"/></g>
<g transform="translate(854.875,392.875) scale(3.605) rotate(-7)"><rect x="0.5" y="0.5" width="5" height="5"/></g>
<g transform="translate(896.875,392.875) scale(3.605) rotate(-1)"><rect x="0.5" y="0.5" width="5" height="5"/></g>
<g transform="translate(161.875,413.875) scale(3.605) rotate(8)"><rect x="0.5" y="0.5" width="5" height="5"/></g>
<g transform="translate(182.875,413.875) scale(3.605) rotate(0)"><rect x="0.5" y="0.5" width="5" height="5"/></g>
<g transform="translate(224.875,413.875) scale(3.605) rotate(-9)"><rect x="0.5" y="0.5" width="5" height="5"/></g>
<g transform="translate(245.875,413.875) scale(3.605) rotate(-6)"><rect x="0.5" y="0.5" width="5" height="5"/></g>
<g transform="translate(266.875,413.875) scale(3.605) rotate(-9)"><rect x="0.5" y="0.5" width="5" height="5"/></g>
<g transform="translate(287.875,413.875) scale(3.605) rotate(-3)"><rect x="0.5" y="0.5" width="5" height="5"/></g>
<g transform="translate(350.875,413.875) scale(3.605) rotate(-6)"><rect x="0.5" y="0.5" width="5" height="5"/></g>
<g transform="translate(413.875,413.875) scale(3.605) rotate(-1)"><rect x="0.5" y="0.5" width="5" height="5"/></g>
<g transform="translate(455.875,413.875) scale(3.605) rotate(-5)"><rect x="0.5" y="0.5" width="5" height="5"/></g>
<g transform="translate(476.875,413.875) scale(3.605) rotate(-8)"><rect x="0.5" y="0.5" width="5" height="5"/></g>
<g transform="translate(497.875,413.875) scale(3.605) rotate(7)"><rect x="0.5" y="0.5" width="5" height="5"/></g>
<g transform="translate(539.875,413.875) scale(3.605) rotate(2)"><rect x="0.5" y="0.5" width="5" height="5"/></g>
<g transform="translate(581.875,413.875) scale(3.605) rotate(-8)"><rect x="0.5" y="0.5" width="5" height="5"/></g>
<g transform="translate(686.875,413.875) scale(3.605) rotate(1)"><rect x="0.5" y="0.5" width="5" height="5"/></g>
<g transform="translate(707.875,413.875) scale(3.605) rotate(6)"><rect x="0.5" y="0.5" width="5" height="5"/></g>
<g transform="translate(770.875,413.875) scale(3.605) rotate(-1)"><rect x="0.5" y="0.5" width="5" height="5"/></g>
<g transform="translate(791.875,413.875) scale(3.605) rotate(9)"><rect x="0.5" y="0.5" width="5" height="5"/></g>
<g transform="translate(833.875,413.875) scale(3.605) rotate(5)"><rect x="0.5" y="0.5" width="5" height="5"/></g>
<g transform="translate(854.875,413.875) scale(3.605) rotate(-7)"><rect x="0.5" y="0.5" width="5" height="5"/></g>
<g transform="translate(875.875,413.875) scale(3.605) rotate(-10)"><rect x="0.5" y="0.5" width="5" height="5"/></g>
<g transform="translate(896.875,413.875) scale(3.605) rotate(10)"><rect x="0.5" y="0.5" width="5" height="5"/></g>
<g transform="translate(917.875,413.875) scale(3.605) rotate(4)"><rect x="0.5" y="0.5" width="5" height="5"/></g>
<g transform="translate(161.875,434.875) scale(3.605) rotate(9)"><rect x="0.5" y="0.5" width="5" height="5"/></g>
<g transform="translate(224.875,434.875) scale(3.605) rotate(-1)"><rect x="0.5" y="0.5" width="5" height="5"/></g>
<g transform="translate(308.875,434.875) scale(3.605) rotate(-4)"><rect x="0.5" y="0.5" width="5" height="5"/></g>
<g transform="translate(350.875,434.875) scale(3.605) rotate(5)"><rect x="0.5" y="0.5" width="5" height="5"/></g>
<g transform="translate(413.875,434.875) scale(3.605) rotate(3)"><rect x="0.5" y="0.5" width="5" height="5"/></g>
<g transform="translate(476.875,434.875) scale(3.605) rotate(-10)"><rect x="0.5" y="0.5" width="5" height="5"/></g>
<g transform="translate(539.875,434.875) scale(3.605) rotate(-8)"><rect x="0.5" y="0.5" width="5" height="5"/></g>
<g transform="translate(623.875,434.875) scale(3.605) rotate(-6)"><rect x="0.5" y="0.5" width="5" height="5"/></g>
<g transform="translate(686.875,434.875) scale(3.605) rotate(-5)"><rect x="0.5" y="0.5" width="5" height="5"/></g>
<g transform="translate(707.875,434.875) scale(3.605) rotate(6)"><rect x="0.5" y="0.5" width="5" height="5"/></g>
<g transform="translate(749.875,434.875) scale(3.605) rotate(-4)"><rect x="0.5" y="0.5" width="5" height="5"/></g>
<g transform="translate(770.875,434.875) scale(3.605) rotate(3)"><rect x="0.5" y="0.5" width="5" height="5"/></g>
<g transform="translate(854.875,434.875) scale(3.605) rotate(5)"><rect x="0.5" y="0.5" width="5" height="5"/></g>
<g transform="translate(875.875,434.875) scale(3.605) rotate(-5)"><rect x="0.5" y="0.5" width="5" height="5"/></g>
<g transform="translate(203.875,455.875) scale(3.605) rotate(-10)"><rect x="0.5" y="0.5" width="5" height="5"/></g>
<g transform="translate(287.875,455.875) scale(3.605) rotate(-4)"><rect x="0.5" y="0.5" width="5" height="5"/></g>
<g transform="translate(329.875,455.875) scale(3.605) rotate(4)"><rect x="0.5" y="0.5" width="5" height="5"/></g>
<g transform="translate(350.875,455.875) scale(3.605) rotate(-9)"><rect x="0.5" y="0.5" width="5" height="5"/></g>
<g transform="translate(413.875,455.875) scale(3.605) rotate(10)"><rect x="0.5" y="0.5" width="5" height="5"/></g>
<g transform="translate(497.875,455.875) scale(3.605) rotate(7)"><rect x="0.5" y="0.5" width="5" height="5"/></g>
<g transform="translate(539.875,455.875) scale(3.605) rotate(7)"><rect x="0.5" y="0.5" width="5" height="5"/></g>
<g transform="translate(560.875,455.875) scale(3.605) rotate(7)"><rect x="0.5" y="0.5" width="5" height="5"/></g>
<g transform="translate(581.875,455.875) scale(3.605) rotate(0)"><rect x="0.5" y="0.5" width="5" height="5"/></g>
<g transform="translate(623.875,455.875) scale(3.605) rotate(-2)"><rect x="0.5" y="0.5" width="5" height="5"/></g>
<g transform="translate(707.875,455.875) scale(3.605) rotate(7)"><rect x="0.5" y="0.5" width="5" height="5"/></g>
<g transform="translate(728.875,455.875) scale(3.605) rotate(-2)"><rect x="0.5" y="0.5" width="5" height="5"/></g>
<g transform="translate(749.875,455.875) scale(3.605) rotate(0)"><rect x="0.5" y="0.5" width="5" height="5"/></g>
<g transform="translate(791.875,455.875) scale(3.605) rotate(-9)"><rect x="0.5" y="0.5" width="5" height="5"/></g>
<g transform="translate(812.875,455.875) scale(3.605) rotate(-10)"><rect x="0.5" y="0.5" width="5" height="5"/></g>
<g transform="translate(854.875,455.875) scale(3.605) rotate(-9)"><rect x="0.5" y="0.5" width="5" height="5"/></g>
<g transform="translate(896.875,455.875) scale(3.605) rotate(-5)"><rect x="0.5" y="0.5" width="5" height="5"/></g>
<g transform="translate(917.875,455.875) scale(3.605) rotate(3)"><rect x="0.5" y="0.5" width="5" height="5"/></g>
<g transform="translate(203.875,476.875) scale(3.605) rotate(-8)"><rect x="0.5" y="0.5" width="5" height="5"/></g>
<g transform="translate(224.875,476.875) scale(3.605) rotate(-7)"><rect x="0.5" y="0.5" width="5" height="5"/></g>
<g transform="translate(266.875,476.875) scale(3.605) rotate(3)"><rect x="0.5" y="0.5" width="5" height="5"/></g>
<g transform="translate(350.875,476.875) scale(3.605) rotate(-7)"><rect x="0.5" y="0.5" width="5" height="5"/></g>
<g transform="translate(560.875,476.875) scale(3.605) rotate(1)"><rect x="0.5" y="0.5" width="5" height="5"/></g>
<g transform="translate(581.875,476.875) scale(3.605) rotate(-10)"><rect x="0.5" y="0.5" width="5" height="5"/></g>
<g transform="translate(602.875,476.875) scale(3.605) rotate(5)"><rect x="0.5" y="0.5" width="5" height="5"/></g>
<g transform="translate(665.875,476.875) scale(3.605) rotate(3)"><rect x="0.5" y="0.5" width="5" height="5"/></g>
<g transform="translate(707.875,476.875) scale(3.605) rotate(-1)"><rect x="0.5" y="0.5" width="5" height="5"/></g>
<g transform="translate(728.875,476.875) scale(3.605) rotate(2)"><rect x="0.5" y="0.5" width="5" height="5"/></g>
<g transform="translate(203.875,497.875) scale(3.605) rotate(-4)"><rect x="0.5" y="0.5" width="5" height="5"/></g>
<g transform="translate(224.875,497.875) scale(3.605) rotate(10)"><rect x="0.5" y="0.5" width="5" height="5"/></g>
<g transform="translate(245.875,497.875) scale(3.605) rotate(10)"><rect x="0.5" y="0.5" width="5" height="5"/></g>
<g transform="translate(287.875,497.875) scale(3.605) rotate(-5)"><rect x="0.5" y="0.5" width="5" height="5"/></g>
<g transform="translate(308.875,497.875) scale(3.605) rotate(-6)"><rect x="0.5" y="0.5" width="5" height="5"/></g>
<g transform="translate(329.875,497.875) scale(3.605) rotate(-8)"><rect x="0.5" y="0.5" width="5" height="5"/></g>
<g transform="translate(350.875,497.875) scale(3.605) rotate(-4)"><rect x="0.5" y="0.5" width="5" height="5"/></g>
<g transform="translate(371.875,497.875) scale(3.605) rotate(-7)"><rect x="0.5" y="0.5" width="5" height="5"/></g>
<g transform="translate(413.875,497.875) scale(3.605) rotate(-4)"><rect x="0.5" y="0.5" width="5" height="5"/></g>
<g transform="translate(434.875,497.875) scale(3.605) rotate(-1)"><rect x="0.5" y="0.5" width="5" height="5"/></g>
<g transform="translate(455.875,497.875) scale(3.605) rotate(5)"><rect x="0.5" y="0.5" width="5" height="5"/></g>
<g transform="translate(497.875,497.875) scale(3.605) rotate(-10)"><rect x="0.5" y="0.5" width="5" height="5"/></g>
<g transform="translate(518.875,497.875) scale(3.605) rotate(-8)"><rect x="0.5" y="0.5" width="5" height="5"/></g>
<g transform="translate(539.875,497.875) scale(3.605) rotate(4)"><rect x="0.5" y="0.5" width="5" height="5"/></g>
<g transform="translate(623.875,497.875) scale(3.605) rotate(-1)"><rect x="0.5" y="0.5" width="5" height="5"/></g>
<g transform="translate(686.875,497.875) scale(3.605) rotate(0)"><rect x="0.5" y="0.5" width="5" height="5"/></g>
<g transform="translate(707.875,497.875) scale(3.605) rotate(0)"><rect x="0.5" y="0.5" width="5" height="5"/></g>
<g transform="translate(728.875,497.875) scale(3.605) rotate(9)"><rect x="0.5" y="0.5" width="5" height="5"/></g>
<g transform="translate(770.875,497.875) scale(3.605) rotate(10)"><rect x="0.5" y="0.5" width="5" height="5"/></g>
<g transform="translate(791.875,497.875) scale(3.605) rotate(2)"><rect x="0.5" y="0.5" width="5" height="5"/></g>
<g transform="translate(812.875,497.875) scale(3.605) rotate(-1)"><rect x="0.5" y="0.5" width="5" height="5"/></g>
<g transform="translate(833.875,497.875) scale(3.605) rotate(5)"><rect x="0.5" y="0.5" width="5" height="5"/></g>
<g transform="translate(875.875,497.875) scale(3.605) rotate(-4)"><rect x="0.5" y="0.5" width="5" height="5"/></g>
<g transform="translate(917.875,497.875) scale(3.605) rotate(0)"><rect x="0.5" y="0.5" width="5" height="5"/></g>
<g transform="translate(182.875,518.875) scale(3.605) rotate(-7)"><rect x="0.5" y="0.5" width="5" height="5"/></g>
<g transform="translate(203.875,518.875) scale(3.605) rotate(-8)"><rect x="0.5" y="0.5" width="5" height="5"/></g>
<g transform="translate(245.875,518.875) scale(3.605) rotate(6)"><rect x="0.5" y="0.5" width="5" height="5"/></g>
<g transform="translate(266.875,518.875) scale(3.605) rotate(-9)"><rect x="0.5" y="0.5" width="5" height="5"/></g>
<g transform="translate(308.875,518.875) scale(3.605) rotate(9)"><rect x="0.5" y="0.5" width="5" height="5"/></g>
<g transform="translate(350.875,518.875) scale(3.605) rotate(2)"><rect x="0.5" y="0.5" width="5" height="5"/></g>
<g transform="translate(371.875,518.875) scale(3.605) rotate(-7)"><rect x="0.5" y="0.5" width="5" height="5"/></g>
<g transform="translate(392.875,518.875) scale(3.605) rotate(8)"><rect x="0.5" y="0.5" width="5" height="5"/></g>
<g transform="translate(434.875,518.875) scale(3.605) rotate(8)"><rect x="0.5" y="0.5" width="5" height="5"/></g>
<g transform="translate(476.875,518.875) scale(3.605) rotate(-3)"><rect x="0.5" y="0.5" width="5" height="5"/></g>
<g transform="translate(497.875,518.875) scale(3.605) rotate(10)"><rect x="0.5" y="0.5" width="5" height="5"/></g>
<g transform="translate(518.875,518.875) scale(3.605) rotate(0)"><rect x="0.5" y="0.5" width="5" height="5"/></g>
<g transform="translate(539.875,518.875) scale(3.605) rotate(1)"><rect x="0.5" y="0.5" width="5" height="5"/></g>
<g transform="translate(581.875,518.875) scale(3.605) rotate(6)"><rect x="0.5" y="0.5" width="5" height="5"/></g>
<g transform="translate(644.875,518.875) scale(3.605) rotate(3)"><rect x="0.5" y="0.5" width="5" height="5"/></g>
<g transform="translate(665.875,518.875) scale(3.605) rotate(-3)"><rect x="0.5" y="0.5" width="5" height="5"/></g>
<g transform="translate(686.875,518.875) scale(3.605) rotate(-10)"><rect x="0.5" y="0.5" width="5" height="5"/></g>
<g transform="translate(749.875,518.875) scale(3.605) rotate(1)"><rect x="0.5" y="0.5" width="5" height="5"/></g>
<g transform="translate(812.875,518.875) scale(3.605) rotate(-8)"><rect x="0.5" y="0.5" width="5" height="5"/></g>
<g transform="translate(854.875,518.875) scale(3.605) rotate(6)"><rect x="0.5" y="0.5" width="5" height="5"/></g>
<g transform="translate(875.875,518.875) scale(3.605) rotate(7)"><rect x="0.5" y="0.5" width="5" height="5"/></g>
<g transform="translate(203.875,539.875) scale(3.605) rotate(6)"><rect x="0.5" y="0.5" width="5" height="5"/></g>
<g transform="translate(224.875,539.875) scale(3.605) rotate(4)"><rect x="0.5" y="0.5" width="5" height="5"/></g>
<g transform="translate(287.875,539.875) scale(3.605) rotate(4)"><rect x="0.5" y="0.5" width="5" height="5"/></g>
<g transform="translate(413.875,539.875) scale(3.605) rotate(10)"><rect x="0.5" y="0.5" width="5" height="5"/></g>
<g transform="translate(434.875,539.875) scale(3.605) rotate(-9)"><rect x="0.5" y="0.5" width="5" height="5"/></g>
<g transform="translate(476.875,539.875) scale(3.605) rotate(5)"><rect x="0.5" y="0.5" width="5" height="5"/></g>
<g transform="translate(497.875,539.875) scale(3.605) rotate(-9)"><rect x="0.5" y="0.5" width="5" height="5"/></g>
<g transform="translate(518.875,539.875) scale(3.605) rotate(-3)"><rect x="0.5" y="0.5" width="5" height="5"/></g>
<g transform="translate(581.875,539.875) scale(3.605) rotate(0)"><rect x="0.5" y="0.5" width="5" height="5"/></g>
<g transform="translate(602.875,539.875) scale(3.605) rotate(9)"><rect x="0.5" y="0.5" width="5" height="5"/></g>
<g transform="translate(644.875,539.875) scale(3.605) rotate(6)"><rect x="0.5" y="0.5" width="5" height="5"/></g>
<g transform="translate(707.875,539.875) scale(3.605) rotate(5)"><rect x="0.5" y="0.5" width="5" height="5"/></g>
<g transform="translate(728.875,539.875) scale(3.605) rotate(2)"><rect x="0.5" y="0.5" width="5" height="5"/></g>
<g transform="translate(749.875,539.875) scale(3.605) rotate(7)"><rect x="0.5" y="0.5" width="5" height="5"/></g>
<g transform="translate(770.875,539.875) scale(3.605) rotate(-6)"><rect x="0.5" y="0.5" width="5" height="5"/></g>
<g transform="translate(812.875,539.875) scale(3.605) rotate(8)"><rect x="0.5" y="0.5" width="5" height="5"/></g>
<g transform="translate(854.875,539.875) scale(3.605) rotate(-7)"><rect x="0.5" y="0.5" width="5" height="5"/></g>
<g transform="translate(875.875,539.875) scale(3.605) rotate(2)"><rect x="0.5" y="0.5" width="5" height="5"/></g>
<g transform="translate(896.875,539.875) scale(3.605) rotate(2)"><rect x="0.5" y="0.5" width="5" height="5"/></g>
<g transform="translate(917.875,539.875) scale(3.605) rotate(-2)"><rect x="0.5" y="0.5" width="5" height="5"/></g>
<g transform="translate(161.875,560.875) scale(3.605) rotate(0)"><rect x="0.5" y="0.5" width="5" height="5"/></g>
<g transform="translate(203.875,560.875) scale(3.605) rotate(-8)"><rect x="0.5" y="0.5" width="5" height="5"/></g>
<g transform="translate(245.875,560.875) scale(3.605) rotate(-1)"><rect x="0.5" y="0.5" width="5" height="5"/></g>
<g transform="translate(266.875,560.875) scale(3.605) rotate(3)"><rect x="0.5" y="0.5" width="5" height="5"/></g>
<g transform="translate(329.875,560.875) scale(3.605) rotate(2)"><rect x="0.5" y="0.5" width="5" height="5"/></g>
<g transform="translate(371.875,560.875) scale(3.605) rotate(-9)"><rect x="0.5" y="0.5" width="5" height="5"/></g>
<g transform="translate(392.875,560.875) scale(3.605) rotate(-1)"><rect x="0.5" y="0.5" width="5" height="5"/></g>
<g transform="translate(413.875,560.875) scale(3.605) rotate(1)"><rect x="0.5" y="0.5" width="5" height="5"/></g>
<g transform="translate(476.875,560.875) scale(3.605) rotate(7)"><rect x="0.5" y="0.5" width="5" height="5"/></g>
<g transform="translate(518.875,560.875) scale(3.605) rotate(9)"><rect x="0.5" y="0.5" width="5" height="5"/></g>
<g transform="translate(560.875,560.875) scale(3.605) rotate(-7)"><rect x="0.5" y="0.5" width="5" height="5"/></g>
<g transform="translate(581.875,560.875) scale(3.605) rotate(-2)"><rect x="0.5" y="0.5" width="5" height="5"/></g>
<g transform="translate(623.875,560.875) scale(3.605) rotate(-4)"><rect x="0.5" y="0.5" width="5" height="5"/></g>
<g transform="translate(665.875,560.875) scale(3.605) rotate(-7)"><rect x="0.5" y="0.5" width="5" height="5"/></g>
<g transform="translate(707.875,560.875) scale(3.605) rotate(1)"><rect x="0.5" y="0.5" width="5" height="5"/></g>
<g transform="translate(728.875,560.875) scale(3.605) rotate(10)"><rect x="0.5" y="0.5" width="5" height="5"/></g>
<g transform="translate(896.875,560.875) scale(3.605) rotate(8)"><rect x="0.5" y="0.5" width="5" height="5"/></g>
<g transform="translate(917.875,560.875) scale(3.605) rotate(0)"><rect x="0.5" y="0.5" width="5" height="5"/></g>
<g transform="translate(161.875,581.875) scale(3.605) rotate(-6)"><rect x="0.5" y="0.5" width="5" height="5"/></g>
<g transform="translate(245.875,581.875) scale(3.605) rotate(-4)"><rect x="0.5" y="0.5" width="5" height="5"/></g>
<g transform="translate(266.875,581.875) scale(3.605) rotate(7)"><rect x="0.5" y="0.5" width="5" height="5"/></g>
<g transform="translate(287.875,581.875) scale(3.605) rotate(-9)"><rect x="0.5" y="0.5" width="5" height="5"/></g>
<g transform="translate(308.875,581.875) scale(3.605) rotate(9)"><rect x="0.5" y="0.5" width="5" height="5"/></g>
<g transform="translate(434.875,581.875) scale(3.605) rotate(7)"><rect x="0.5" y="0.5" width="5" height="5"/></g>
<g transform="translate(455.875,581.875) scale(3.605) rotate(7)"><rect x="0.5" y="0.5" width="5" height="5"/></g>
<g transform="translate(497.875,581.875) scale(3.605) rotate(-1)"><rect x="0.5" y="0.5" width="5" height="5"/></g>
<g transform="translate(539.875,581.875) scale(3.605) rotate(4)"><rect x="0.5" y="0.5" width="5" height="5"/></g>
<g transform="translate(581.875,581.875) scale(3.605) rotate(0)"><rect x="0.5" y="0.5" width="5" height="5"/></g>
<g transform="translate(686.875,581.875) scale(3.605) rotate(-10)"><rect x="0.5" y="0.5" width="5" height="5"/></g>
<g transform="translate(707.875,581.875) scale(3.605) rotate(-5)"><rect x="0.5" y="0.5" width="5" height="5"/></g>
<g transform="translate(728.875,581.875) scale(3.605) rotate(9)"><rect x="0.5" y="0.5" width="5" height="5"/></g>
<g transform="translate(770.875,581.875) scale(3.605) rotate(1)"><rect x="0.5" y="0.5" width="5" height="5"/></g>
<g transform="translate(791.875,581.875) scale(3.605) rotate(-7)"><rect x="0.5" y="0.5" width="5" height="5"/></g>
<g transform="translate(812.875,581.875) scale(3.605) rotate(8)"><rect x="0.5" y="0.5" width="5" height="5"/></g>
<g transform="translate(833.875,581.875) scale(3.605) rotate(6)"><rect x="0.5" y="0.5" width="5" height="5"/></g>
<g transform="translate(854.875,581.875) scale(3.605) rotate(-9)"><rect x="0.5" y="0.5" width="5" height="5"/></g>
<g transform="translate(875.875,581.875) scale(3.605) rotate(-8)"><rect x="0.5" y="0.5" width="5" height="5"/></g>
<g transform="translate(896.875,581.875) scale(3.605) rotate(7)"><rect x="0.5" y="0.5" width="5" height="5"/></g>
<g transform="translate(917.875,581.875) scale(3.605) rotate(4)"><rect x="0.5" y="0.5" width="5" height="5"/></g>
<g transform="translate(182.875,602.875) scale(3.605) rotate(7)"><rect x="0.5" y="0.5" width="5" height="5"/></g>
<g transform="translate(266.875,602.875) scale(3.605) rotate(0)"><rect x="0.5" y="0.5" width="5" height="5"/></g>
<g transform="translate(329.875,602.875) scale(3.605) rotate(9)"><rect x="0.5" y="0.5" width="5" height="5"/></g>
<g transform="translate(350.875,602.875) scale(3.605) rotate(5)"><rect x="0.5" y="0.5" width="5" height="5"/></g>
<g transform="translate(413.875,602.875) scale(3.605) rotate(-7)"><rect x="0.5" y="0.5" width="5" height="5"/></g>
<g transform="translate(455.875,602.875) scale(3.605) rotate(-4)"><rect x="0.5" y="0.5" width="5" height="5"/></g>
<g transform="translate(497.875,602.875) scale(3.605) rotate(10)"><rect x="0.5" y="0.5" width="5" height="5"/></g>
<g transform="translate(518.875,602.875) scale(3.605) rotate(-8)"><rect x="0.5" y="0.5" width="5" height="5"/></g>
<g transform="translate(560.875,602.875) scale(3.605) rotate(8)"><rect x="0.5" y="0.5" width="5" height="5"/></g>
<g transform="translate(602.875,602.875) scale(3.605) rotate(-7)"><rect x="0.5" y="0.5" width="5" height="5"/></g>
<g transform="translate(623.875,602.875) scale(3.605) rotate(3)"><rect x="0.5" y="0.5" width="5" height="5"/></g>
<g transform="translate(644.875,602.875) scale(3.605) rotate(9)"><rect x="0.5" y="0.5" width="5" height="5"/></g>
<g transform="translate(665.875,602.875) scale(3.605) rotate(-6)"><rect x="0.5" y="0.5" width="5" height="5"/></g>
<g transform="translate(686.875,602.875) scale(3.605) rotate(10)"><rect x="0.5" y="0.5" width="5" height="5"/></g>
<g transform="translate(770.875,602.875) scale(3.605) rotate(-6)"><rect x="0.5" y="0.5" width="5" height="5"/></g>
<g transform="translate(812.875,602.875) scale(3.605) rotate(-4)"><rect x="0.5" y="0.5" width="5" height="5"/></g>
<g transform="translate(182.875,623.875) scale(3.605) rotate(8)"><rect x="0.5" y="0.5" width="5" height="5"/></g>
<g transform="translate(203.875,623.875) scale(3.605) rotate(8)"><rect x="0.5" y="0.5" width="5" height="5"/></g>
<g transform="translate(245.875,623.875) scale(3.605) rotate(6)"><rect x="0.5" y="0.5" width="5" height="5"/></g>
<g transform="translate(266.875,623.875) scale(3.605) rotate(7)"><rect x="0.5" y="0.5" width="5" height="5"/></g>
<g transform="translate(287.875,623.875) scale(3.605) rotate(0)"><rect x="0.5" y="0.5" width="5" height="5"/></g>
<g transform="translate(308.875,623.875) scale(3.605) rotate(-3)"><rect x="0.5" y="0.5" width="5" height="5"/></g>
<g transform="translate(350.875,623.875) scale(3.605) rotate(-2)"><rect x="0.5" y="0.5" width="5" height="5"/></g>
<g transform="translate(371.875,623.875) scale(3.605) rotate(-8)"><rect x="0.5" y="0.5" width="5" height="5"/></g>
<g transform="translate(455.875,623.875) scale(3.605) rotate(6)"><rect x="0.5" y="0.5" width="5" height="5"/></g>
<g transform="translate(476.875,623.875) scale(3.605) rotate(-2)"><rect x="0.5" y="0.5" width="5" height="5"/></g>
<g transform="translate(497.875,623.875) scale(3.605) rotate(-6)"><rect x="0.5" y="0.5" width="5" height="5"/></g>
<g transform="translate(518.875,623.875) scale(3.605) rotate(0)"><rect x="0.5" y="0.5" width="5" height="5"/></g>
<g transform="translate(539.875,623.875) scale(3.605) rotate(-10)"><rect x="0.5" y="0.5" width="5" height="5"/></g>
<g transform="translate(560.875,623.875) scale(3.605) rotate(-5)"><rect x="0.5" y="0.5" width="5" height="5"/></g>
<g transform="translate(581.875,623.875) scale(3.605) rotate(-3)"><rect x="0.5" y="0.5" width="5" height="5"/></g>
<g transform="translate(623.875,623.875) scale(3.605) rotate(-1)"><rect x="0.5" y="0.5" width="5" height="5"/></g>
<g transform="translate(686.875,623.875) scale(3.605) rotate(-7)"><rect x="0.5" y="0.5" width="5" height="5"/></g>
<g transform="translate(707.875,623.875) scale(3.605) rotate(0)"><rect x="0.5" y="0.5" width="5" height="5"/></g>
<g transform="translate(728.875,623.875) scale(3.605) rotate(-4)"><rect x="0.5" y="0.5" width="5" height="5"/></g>
<g transform="translate(770.875,623.875) scale(3.605) rotate(7)"><rect x="0.5" y="0.5" width="5" height="5"/></g>
<g transform="translate(896.875,623.875) scale(3.605) rotate(7)"><rect x="0.5" y="0.5" width="5" height="5"/></g>
<g transform="translate(917.875,623.875) scale(3.605) rotate(5)"><rect x="0.5" y="0.5" width="5" height="5"/></g>
<g transform="translate(245.875,644.875) scale(3.605) rotate(4)"><rect x="0.5" y="0.5" width="5" height="5"/></g>
<g transform="translate(266.875,644.875) scale(3.605) rotate(1)"><rect x="0.5" y="0.5" width="5" height="5"/></g>
<g transform="translate(329.875,644.875) scale(3.605) rotate(1)"><rect x="0.5" y="0.5" width="5" height="5"/></g>
<g transform="translate(350.875,644.875) scale(3.605) rotate(7)"><rect x="0.5" y="0.5" width="5" height="5"/></g>
<g transform="translate(392.875,644.875) scale(3.605) rotate(5)"><rect x="0.5" y="0.5" width="5" height="5"/></g>
<g transform="translate(413.875,644.875) scale(3.605) rotate(10)"><rect x="0.5" y="0.5" width="5" height="5"/></g>
<g transform="translate(434.875,644.875) scale(3.605) rotate(5)"><rect x="0.5" y="0.5" width="5" height="5"/></g>
<g transform="translate(497.875,644.875) scale(3.605) rotate(-10)"><rect x="0.5" y="0.5" width="5" height="5"/></g>
<g transform="translate(539.875,644.875) scale(3.605) rotate(-2)"><rect x="0.5" y="0.5" width="5" height="5"/></g>
<g transform="translate(581.875,644.875) scale(3.605) rotate(3)"><rect x="0.5" y="0.5" width="5" height="5"/></g>
<g transform="translate(644.875,644.875) scale(3.605) rotate(4)"><rect x="0.5" y="0.5" width="5" height="5"/></g>
<g transform="translate(665.875,644.875) scale(3.605) rotate(1)"><rect x="0.5" y="0.5" width="5" height="5"/></g>
<g transform="translate(686.875,644.875) scale(3.605) rotate(7)"><rect x="0.5" y="0.5" width="5" height="5"/></g>
<g transform="translate(812.875,644.875) scale(3.605) rotate(3)"><rect x="0.5" y="0.5" width="5" height="5"/></g>
<g transform="translate(182.875,665.875) scale(3.605) rotate(-2)"><rect x="0.5" y="0.5" width="5" height="5"/></g>
<g transform="translate(203.875,665.875) scale(3.605) rotate(-1)"><rect x="0.5" y="0.5" width="5" height="5"/></g>
<g transform="translate(224.875,665.875) scale(3.605) rotate(-6)"><rect x="0.5" y="0.5" width="5" height="5"/></g>
<g transform="translate(287.875,665.875) scale(3.605) rotate(-1)"><rect x="0.5" y="0.5" width="5" height="5"/></g>
<g transform="translate(308.875,665.875) scale(3.605) rotate(-2)"><rect x="0.5" y="0.5" width="5" height="5"/></g>
<g transform="translate(371.875,665.875) scale(3.605) rotate(9)"><rect x="0.5" y="0.5" width="5" height="5"/></g>
<g transform="translate(392.875,665.875) scale(3.605) rotate(-3)"><rect x="0.5" y="0.5" width="5" height="5"/></g>
<g transform="translate(455.875,665.875) scale(3.605) rotate(5)"><rect x="0.5" y="0.5" width="5" height="5"/></g>
<g transform="translate(497.875,665.875) scale(3.605) rotate(-5)"><rect x="0.5" y="0.5" width="5" height="5"/></g>
<g transform="translate(539.875,665.875) scale(3.605) rotate(5)"><rect x="0.5" y="0.5" width="5" height="5"/></g>
<g transform="translate(581.875,665.875) scale(3.605) rotate(7)"><rect x="0.5" y="0.5" width="5" height="5"/></g>
<g transform="translate(665.875,665.875) scale(3.605) rotate(-7)"><rect x="0.5" y="0.5" width="5" height="5"/></g>
<g transform="translate(707.875,665.875) scale(3.605) rotate(4)"><rect x="0.5" y="0.5" width="5" height="5"/></g>
<g transform="translate(749.875,665.875) scale(3.605) rotate(2)"><rect x="0.5" y="0.5" width="5" height="5"/></g>
<g transform="translate(770.875,665.875) scale(3.605) rotate(-9)"><rect x="0.5" y="0.5" width="5" height="5"/></g>
<g transform="translate(812.875,665.875) scale(3.605) rotate(2)"><rect x="0.5" y="0.5" width="5" height="5"/></g>
<g transform="translate(833.875,665.875) scale(3.605) rotate(-8)"><rect x="0.5" y="0.5" width="5" height="5"/></g>
<g transform="translate(854.875,665.875) scale(3.605) rotate(-1)"><rect x="0.5" y="0.5" width="5" height="5"/></g>
<g transform="translate(875.875,665.875) scale(3.605) rotate(8)"><rect x="0.5" y="0.5" width="5" height="5"/></g>
<g transform="translate(161.875,686.875) scale(3.605) rotate(4)"><rect x="0.5" y="0.5" width="5" height="5"/></g>
<g transform="translate(182.875,686.875) scale(3.605) rotate(-6)"><rect x="0.5" y="0.5" width="5" height="5"/></g>
<g transform="translate(203.875,686.875) scale(3.605) rotate(-9)"><rect x="0.5" y="0.5" width="5" height="5"/></g>
<g transform="translate(224.875,686.875) scale(3.605) rotate(8)"><rect x="0.5" y="0.5" width="5" height="5"/></g>
<g transform="translate(266.875,686.875) scale(3.605) rotate(-7)"><rect x="0.5" y="0.5" width="5" height="5"/></g>
<g transform="translate(308.875,686.875) scale(3.605) rotate(-10)"><rect x="0.5" y="0.5" width="5" height="5"/></g>
<g transform="translate(371.875,686.875) scale(3.605) rotate(3)"><rect x="0.5" y="0.5" width="5" height="5"/></g>
<g transform="translate(392.875,686.875) scale(3.605) rotate(-10)"><rect x="0.5" y="0.5" width="5" height="5"/></g>
<g transform="translate(413.875,686.875) scale(3.605) rotate(-8)"><rect x="0.5" y="0.5" width="5" height="5"/></g>
<g transform="translate(455.875,686.875) scale(3.605) rotate(1)"><rect x="0.5" y="0.5" width="5" height="5"/></g>
<g transform="translate(560.875,686.875) scale(3.605) rotate(-6)"><rect x="0.5" y="0.5" width="5" height="5"/></g>
<g transform="translate(623.875,686.875) scale(3.605) rotate(1)"><rect x="0.5" y="0.5" width="5" height="5"/></g>
<g transform="translate(728.875,686.875) scale(3.605) rotate(-5)"><rect x="0.5" y="0.5" width="5" height="5"/></g>
<g transform="translate(791.875,686.875) scale(3.605) rotate(-1)"><rect x="0.5" y="0.5" width="5" height="5"/></g>
<g transform="translate(812.875,686.875) scale(3.605) rotate(10)"><rect x="0.5" y="0.5" width="5" height="5"/></g>
<g transform="translate(875.875,686.875) scale(3.605) rotate(-1)"><rect x="0.5" y="0.5" width="5" height="5"/></g>
<g transform="translate(161.875,707.875) scale(3.605) rotate(10)"><rect x="0.5" y="0.5" width="5" height="5"/></g>
<g transform="translate(203.875,707.875) scale(3.605) rotate(6)"><rect x="0.5" y="0.5" width="5" height="5"/></g>
<g transform="translate(224.875,707.875) scale(3.605) rotate(-8)"><rect x="0.5" y="0.5" width="5" height="5"/></g>
<g transform="translate(245.875,707.875) scale(3.605) rotate(-2)"><rect x="0.5" y="0.5" width="5" height="5"/></g>
<g transform="translate(266.875,707.875) scale(3.605) rotate(-3)"><rect x="0.5" y="0.5" width="5" height="5"/></g>
<g transform="translate(287.875,707.875) scale(3.605) rotate(1)"><rect x="0.5" y="0.5" width="5" height="5"/></g>
<g transform="translate(329.875,707.875) scale(3.605) rotate(8)"><rect x="0.5" y="0.5" width="5" height="5"/></g>
<g transform="translate(350.875,707.875) scale(3.605) rotate(10)"><rect x="0.5" y="0.5" width="5" height="5"/></g>
<g transform="translate(371.875,707.875) scale(3.605) rotate(4)"><rect x="0.5" y="0.5" width="5" height="5"/></g>
<g transform="translate(392.875,707.875) scale(3.605) rotate(7)"><rect x="0.5" y="0.5" width="5" height="5"/></g>
<g transform="translate(497.875,707.875) scale(3.605) rotate(9)"><rect x="0.5" y="0.5" width="5" height="5"/></g>
<g transform="translate(518.875,707.875) scale(3.605) rotate(0)"><rect x="0.5" y="0.5" width="5" height="5"/></g>
<g transform="translate(581.875,707.875) scale(3.605) rotate(-5)"><rect x="0.5" y="0.5" width="5" height="5"/></g>
<g transform="translate(644.875,707.875) scale(3.605) rotate(-7)"><rect x="0.5" y="0.5" width="5" height="5"/></g>
<g transform="translate(665.875,707.875) scale(3.605) rotate(-3)"><rect x="0.5" y="0.5" width="5" height="5"/></g>
<g transform="translate(686.875,707.875) scale(3.605) rotate(-9)"><rect x="0.5" y="0.5" width="5" height="5"/></g>
<g transform="translate(707.875,707.875) scale(3.605) rotate(1)"><rect x="0.5" y="0.5" width="5" height="5"/></g>
<g transform="translate(728.875,707.875) scale(3.605) rotate(-8)"><rect x="0.5" y="0.5" width="5" height="5"/></g>
<g transform="translate(749.875,707.875) scale(3.605) rotate(10)"><rect x="0.5" y="0.5" width="5" height="5"/></g>
<g transform="translate(791.875,707.875) scale(3.605) rotate(-10)"><rect x="0.5" y="0.5" width="5" height="5"/></g>
<g transform="translate(812.875,707.875) scale(3.605) rotate(-6)"><rect x="0.5" y="0.5" width="5" height="5"/></g>
<g transform="translate(854.875,707.875) scale(3.605) rotate(3)"><rect x="0.5" y="0.5" width="5" height="5"/></g>
<g transform="translate(875.875,707.875) scale(3.605) rotate(6)"><rect x="0.5" y="0.5" width="5" height="5"/></g>
<g transform="translate(896.875,707.875) scale(3.605) rotate(-1)"><rect x="0.5" y="0.5" width="5" height="5"/></g>
<g transform="translate(917.875,707.875) scale(3.605) rotate(-7)"><rect x="0.5" y="0.5" width="5" height="5"/></g>
<g transform="translate(161.875,728.875) scale(3.605) rotate(-9)"><rect x="0.5" y="0.5" width="5" height="5"/></g>
<g transform="translate(203.875,728.875) scale(3.605) rotate(-5)"><rect x="0.5" y="0.5" width="5" height="5"/></g>
<g transform="translate(224.875,728.875) scale(3.605) rotate(3)"><rect x="0.5" y="0.5" width="5" height="5"/></g>
<g transform="translate(245.875,728.875) scale(3.605) rotate(2)"><rect x="0.5" y="0.5" width="5" height="5"/></g>
<g transform="translate(308.875,728.875) scale(3.605) rotate(-10)"><rect x="0.5" y="0.5" width="5" height="5"/></g>
<g transform="translate(350.875,728.875) scale(3.605) rotate(3)"><rect x="0.5" y="0.5" width="5" height="5"/></g>
<g transform="translate(371.875,728.875) scale(3.605) rotate(7)"><rect x="0.5" y="0.5" width="5" height="5"/></g>
<g transform="translate(413.875,728.875) scale(3.605) rotate(4)"><rect x="0.5" y="0.5" width="5" height="5"/></g>
<g transform="translate(497.875,728.875) scale(3.605) rotate(10)"><rect x="0.5" y="0.5" width="5" height="5"/></g>
<g transform="translate(518.875,728.875) scale(3.605) rotate(5)"><rect x="0.5" y="0.5" width="5" height="5"/></g>
<g transform="translate(539.875,728.875) scale(3.605) rotate(7)"><rect x="0.5" y="0.5" width="5" height="5"/></g>
<g transform="translate(560.875,728.875) scale(3.605) rotate(8)"><rect x="0.5" y="0.5" width="5" height="5"/></g>
<g transform="translate(581.875,728.875) scale(3.605) rotate(8)"><rect x="0.5" y="0.5" width="5" height="5"/></g>
<g transform="translate(623.875,728.875) scale(3.605) rotate(8)"><rect x="0.5" y="0.5" width="5" height="5"/></g>
<g transform="translate(644.875,728.875) scale(3.605) rotate(0)"><rect x="0.5" y="0.5" width="5" height="5"/></g>
<g transform="translate(728.875,728.875) scale(3.605) rotate(-3)"><rect x="0.5" y="0.5" width="5" height="5"/></g>
<g transform="translate(770.875,728.875) scale(3.605) rotate(-5)"><rect x="0.5" y="0.5" width="5" height="5"/></g>
<g transform="translate(812.875,728.875) scale(3.605) rotate(-1)"><rect x="0.5" y="0.5" width="5" height="5"/></g>
<g transform="translate(161.875,749.875) scale(3.605) rotate(-7)"><rect x="0.5" y="0.5" width="5" height="5"/></g>
<g transform="translate(203.875,749.875) scale(3.605) rotate(5)"><rect x="0.5" y="0.5" width="5" height="5"/></g>
<g transform="translate(287.875,749.875) scale(3.605) rotate(6)"><rect x="0.5" y="0.5" width="5" height="5"/></g>
<g transform="translate(308.875,749.875) scale(3.605) rotate(0)"><rect x="0.5" y="0.5" width="5" height="5"/></g>
<g transform="translate(350.875,749.875) scale(3.605) rotate(-6)"><rect x="0.5" y="0.5" width="5" height="5"/></g>
<g transform="translate(392.875,749.875) scale(3.605) rotate(7)"><rect x="0.5" y="0.5" width="5" height="5"/></g>
<g transform="translate(413.875,749.875) scale(3.605) rotate(-6)"><rect x="0.5" y="0.5" width="5" height="5"/></g>
<g transform="translate(476.875,749.875) scale(3.605) rotate(5)"><rect x="0.5" y="0.5" width="5" height="5"/></g>
<g transform="translate(518.875,749.875) scale(3.605) rotate(-10)"><rect x="0.5" y="0.5" width="5" height="5"/></g>
<g transform="translate(539.875,749.875) scale(3.605) rotate(-6)"><rect x="0.5" y="0.5" width="5" height="5"/></g>
<g transform="translate(581.875,749.875) scale(3.605) rotate(9)"><rect x="0.5" y="0.5" width="5" height="5"/></g>
<g transform="translate(644.875,749.875) scale(3.605) rotate(-1)"><rect x="0.5" y="0.5" width="5" height="5"/></g>
<g transform="translate(665.875,749.875) scale(3.605) rotate(9)"><rect x="0.5" y="0.5" width="5" height="5"/></g>
<g transform="translate(686.875,749.875) scale(3.605) rotate(-3)"><rect x="0.5" y="0.5" width="5" height="5"/></g>
<g transform="translate(707.875,749.875) scale(3.605) rotate(7)"><rect x="0.5" y="0.5" width="5" height="5"/></g>
<g transform="translate(728.875,749.875) scale(3.605) rotate(-8)"><rect x="0.5" y="0.5" width="5" height="5"/></g>
<g transform="translate(749.875,749.875) scale(3.605) rotate(10)"><rect x="0.5" y="0.5" width="5" height="5"/></g>
<g transform="translate(770.875,749.875) scale(3.605) rotate(-9)"><rect x="0.5" y="0.5" width="5" height="5"/></g>
<g transform="translate(791.875,749.875) scale(3.605) rotate(0)"><rect x="0.5" y="0.5" width="5" height="5"/></g>
<g transform="translate(812.875,749.875) scale(3.605) rotate(10)"><rect x="0.5" y="0.5" width="5" height="5"/></g>
<g transform="translate(833.875,749.875) scale(3.605) rotate(8)"><rect x="0.5" y="0.5" width="5" height="5"/></g>
<g transform="translate(854.875,749.875) scale(3.605) rotate(10)"><rect x="0.5" y="0.5" width="5" height="5"/></g>
<g transform="translate(875.875,749.875) scale(3.605) rotate(1)"><rect x="0.5" y="0.5" width="5" height="5"/></g>
<g transform="translate(896.875,749.875) scale(3.605) rotate(-6)"><rect x="0.5" y="0.5" width="5" height="5"/></g>
<g transform="translate(329.875,770.875) scale(3.605) rotate(-8)"><rect x="0.5" y="0.5" width="5" height="5"/></g>
<g transform="translate(350.875,770.875) scale(3.605) rotate(0)"><rect x="0.5" y="0.5" width="5" height="5"/></g>
<g transform="translate(371.875,770.875) scale(3.605) rotate(6)"><rect x="0.5" y="0.5" width="5" height="5"/></g>
<g transform="translate(392.875,770.875) scale(3.605) rotate(9)"><rect x="0.5" y="0.5" width="5" height="5"/></g>
<g transform="translate(434.875,770.875) scale(3.605) rotate(3)"><rect x="0.5" y="0.5" width="5" height="5"/></g>
<g transform="translate(455.875,770.875) scale(3.605) rotate(7)"><rect x="0.5" y="0.5" width="5" height="5"/></g>
<g transform="translate(518.875,770.875) scale(3.605) rotate(-6)"><rect x="0.5" y="0.5" width="5" height="5"/></g>
<g transform="translate(602.875,770.875) scale(3.605) rotate(9)"><rect x="0.5" y="0.5" width="5" height="5"/></g>
<g transform="translate(623.875,770.875) scale(3.605) rotate(0)"><rect x="0.5" y="0.5" width="5" height="5"/></g>
<g transform="translate(644.875,770.875) scale(3.605) rotate(-10)"><rect x="0.5" y="0.5" width="5" height="5"/></g>
<g transform="translate(728.875,770.875) scale(3.605) rotate(-3)"><rect x="0.5" y="0.5" width="5" height="5"/></g>
<g transform="translate(749.875,770.875) scale(3.605) rotate(-4)"><rect x="0.5" y="0.5" width="5" height="5"/></g>
<g transform="translate(833.875,770.875) scale(3.605) rotate(-8)"><rect x="0.5" y="0.5" width="5" height="5"/></g>
<g transform="translate(896.875,770.875) scale(3.605) rotate(1)"><rect x="0.5" y="0.5" width="5" height="5"/></g>
<g transform="translate(434.875,791.875) scale(3.605) rotate(-8)"><rect x="0.5" y="0.5" width="5" height="5"/></g>
<g transform="translate(560.875,791.875) scale(3.605) rotate(0)"><rect x="0.5" y="0.5" width="5" height="5"/></g>
<g transform="translate(602.875,791.875) scale(3.605) rotate(-8)"><rect x="0.5" y="0.5" width="5" height="5"/></g>
<g transform="translate(749.875,791.875) scale(3.605) rotate(-8)"><rect x="0.5" y="0.5" width="5" height="5"/></g>
<g transform="translate(791.875,791.875) scale(3.605) rotate(-6)"><rect x="0.5" y="0.5" width="5" height="5"/></g>
<g transform="translate(833.875,791.875) scale(3.605) rotate(-10)"><rect x="0.5" y="0.5" width="5" height="5"/></g>
<g transform="translate(854.875,791.875) scale(3.605) rotate(2)"><rect x="0.5" y="0.5" width="5" height="5"/></g>
<g transform="translate(896.875,791.875) scale(3.605) rotate(0)"><rect x="0.5" y="0.5" width="5" height="5"/></g>
<g transform="translate(917.875,791.875) scale(3.605) rotate(-3)"><rect x="0.5" y="0.5" width="5" height="5"/></g>
<g transform="translate(371.875,812.875) scale(3.605) rotate(-2)"><rect x="0.5" y="0.5" width="5" height="5"/></g>
<g transform="translate(455.875,812.875) scale(3.605) rotate(-3)"><rect x="0.5" y="0.5" width="5" height="5"/></g>
<g transform="translate(476.875,812.875) scale(3.605) rotate(-7)"><rect x="0.5" y="0.5" width="5" height="5"/></g>
<g transform="translate(665.875,812.875) scale(3.605) rotate(5)"><rect x="0.5" y="0.5" width="5" height="5"/></g>
<g transform="translate(707.875,812.875) scale(3.605) rotate(9)"><rect x="0.5" y="0.5" width="5" height="5"/></g>
<g transform="translate(749.875,812.875) scale(3.605) rotate(6)"><rect x="0.5" y="0.5" width="5" height="5"/></g>
<g transform="translate(833.875,812.875) scale(3.605) rotate(-3)"><rect x="0.5" y="0.5" width="5" height="5"/></g>
<g transform="translate(896.875,812.875) scale(3.605) rotate(4)"><rect x="0.5" y="0.5" width="5" height="5"/></g>
<g transform="translate(917.875,812.875) scale(3.605) rotate(5)"><rect x="0.5" y="0.5" width="5" height="5"/></g>
<g transform="translate(329.875,833.875) scale(3.605) rotate(-3)"><rect x="0.5" y="0.5" width="5" height="5"/></g>
<g transform="translate(350.875,833.875) scale(3.605) rotate(6)"><rect x="0.5" y="0.5" width="5" height="5"/></g>
<g transform="translate(371.875,833.875) scale(3.605) rotate(-10)"><rect x="0.5" y="0.5" width="5" height="5"/></g>
<g transform="translate(392.875,833.875) scale(3.605) rotate(-6)"><rect x="0.5" y="0.5" width="5" height="5"/></g>
<g transform="translate(455.875,833.875) scale(3.605) rotate(-4)"><rect x="0.5" y="0.5" width="5" height="5"/></g>
<g transform="translate(476.875,833.875) scale(3.605) rotate(-4)"><rect x="0.5" y="0.5" width="5" height="5"/></g>
<g transform="translate(539.875,833.875) scale(3.605) rotate(-10)"><rect x="0.5" y="0.5" width="5" height="5"/></g>
<g transform="translate(560.875,833.875) scale(3.605) rotate(9)"><rect x="0.5" y="0.5" width="5" height="5"/></g>
<g transform="translate(623.875,833.875) scale(3.605) rotate(8)"><rect x="0.5" y="0.5" width="5" height="5"/></g>
<g transform="translate(644.875,833.875) scale(3.605) rotate(-7)"><rect x="0.5" y="0.5" width="5" height="5"/></g>
<g transform="translate(686.875,833.875) scale(3.605) rotate(4)"><rect x="0.5" y="0.5" width="5" height="5"/></g>
<g transform="translate(707.875,833.875) scale(3.605) rotate(3)"><rect x="0.5" y="0.5" width="5" height="5"/></g>
<g transform="translate(728.875,833.875) scale(3.605) rotate(-7)"><rect x="0.5" y="0.5" width="5" height="5"/></g>
<g transform="translate(749.875,833.875) scale(3.605) rotate(-1)"><rect x="0.5" y="0.5" width="5" height="5"/></g>
<g transform="translate(770.875,833.875) scale(3.605) rotate(-2)"><rect x="0.5" y="0.5" width="5" height="5"/></g>
<g transform="translate(791.875,833.875) scale(3.605) rotate(-6)"><rect x="0.5" y="0.5" width="5" height="5"/></g>
<g transform="translate(812.875,833.875) scale(3.605) rotate(0)"><rect x="0.5" y="0.5" width="5" height="5"/></g>
<g transform="translate(833.875,833.875) scale(3.605) rotate(4)"><rect x="0.5" y="0.5" width="5" height="5"/></g>
<g transform="translate(875.875,833.875) scale(3.605) rotate(4)"><rect x="0.5" y="0.5" width="5" height="5"/></g>
<g transform="translate(896.875,833.875) scale(3.605) rotate(3)"><rect x="0.5" y="0.5" width="5" height="5"/></g>
<g transform="translate(917.875,833.875) scale(3.605) rotate(-7)"><rect x="0.5" y="0.5" width="5" height="5"/></g>
<g transform="translate(329.875,854.875) scale(3.605) rotate(-4)"><rect x="0.5" y="0.5" width="5" height="5"/></g>
<g transform="translate(371.875,854.875) scale(3.605) rotate(5)"><rect x="0.5" y="0.5" width="5" height="5"/></g>
<g transform="translate(413.875,854.875) scale(3.605) rotate(3)"><rect x="0.5" y="0.5" width="5" height="5"/></g>
<g transform="translate(476.875,854.875) scale(3.605) rotate(6)"><rect x="0.5" y="0.5" width="5" height="5"/></g>
<g transform="translate(560.875,854.875) scale(3.605) rotate(3)"><rect x="0.5" y="0.5" width="5" height="5"/></g>
<g transform="translate(581.875,854.875) scale(3.605) rotate(-9)"><rect x="0.5" y="0.5" width="5" height="5"/></g>
<g transform="translate(602.875,854.875) scale(3.605) rotate(-7)"><rect x="0.5" y="0.5" width="5" height="5"/></g>
<g transform="translate(623.875,854.875) scale(3.605) rotate(10)"><rect x="0.5" y="0.5" width="5" height="5"/></g>
<g transform="translate(665.875,854.875) scale(3.605) rotate(-1)"><rect x="0.5" y="0.5" width="5" height="5"/></g>
<g transform="translate(728.875,854.875) scale(3.605) rotate(2)"><rect x="0.5" y="0.5" width="5" height="5"/></g>
<g transform="translate(749.875,854.875) scale(3.605) rotate(7)"><rect x="0.5" y="0.5" width="5" height="5"/></g>
<g transform="translate(791.875,854.875) scale(3.605) rotate(-7)"><rect x="0.5" y="0.5" width="5" height="5"/></g>
<g transform="translate(833.875,854.875) scale(3.605) rotate(4)"><rect x="0.5" y="0.5" width="5" height="5"/></g>
<g transform="translate(854.875,854.875) scale(3.605) rotate(-7)"><rect x="0.5" y="0.5" width="5" height="5"/></g>
<g transform="translate(329.875,875.875) scale(3.605) rotate(8)"><rect x="0.5" y="0.5" width="5" height="5"/></g>
<g transform="translate(413.875,875.875) scale(3.605) rotate(-4)"><rect x="0.5" y="0.5" width="5" height="5"/></g>
<g transform="translate(434.875,875.875) scale(3.605) rotate(-2)"><rect x="0.5" y="0.5" width="5" height="5"/></g>
<g transform="translate(455.875,875.875) scale(3.605) rotate(-4)"><rect x="0.5" y="0.5" width="5" height="5"/></g>
<g transform="translate(497.875,875.875) scale(3.605) rotate(8)"><rect x="0.5" y="0.5" width="5" height="5"/></g>
<g transform="translate(518.875,875.875) scale(3.605) rotate(0)"><rect x="0.5" y="0.5" width="5" height="5"/></g>
<g transform="translate(560.875,875.875) scale(3.605) rotate(6)"><rect x="0.5" y="0.5" width="5" height="5"/></g>
<g transform="translate(581.875,875.875) scale(3.605) rotate(8)"><rect x="0.5" y="0.5" width="5" height="5"/></g>
<g transform="translate(707.875,875.875) scale(3.605) rotate(-2)"><rect x="0.5" y="0.5" width="5" height="5"/></g>
<g transform="translate(770.875,875.875) scale(3.605) rotate(-7)"><rect x="0.5" y="0.5" width="5" height="5"/></g>
<g transform="translate(812.875,875.875) scale(3.605) rotate(-4)"><rect x="0.5" y="0.5" width="5" height="5"/></g>
<g transform="translate(917.875,875.875) scale(3.605) rotate(-5)"><rect x="0.5" y="0.5" width="5" height="5"/></g>
<g transform="translate(350.875,896.875) scale(3.605) rotate(-4)"><rect x="0.5" y="0.5" width="5" height="5"/></g>
<g transform="translate(413.875,896.875) scale(3.605) rotate(-8)"><rect x="0.5" y="0.5" width="5" height="5"/></g>
<g transform="translate(434.875,896.875) scale(3.605) rotate(-3)"><rect x="0.5" y="0.5" width="5" height="5"/></g>
<g transform="translate(455.875,896.875) scale(3.605) rotate(-9)"><rect x="0.5" y="0.5" width="5" height="5"/></g>
<g transform="translate(539.875,896.875) scale(3.605) rotate(2)"><rect x="0.5" y="0.5" width="5" height="5"/></g>
<g transform="translate(560.875,896.875) scale(3.605) rotate(0)"><rect x="0.5" y="0.5" width="5" height="5"/></g>
<g transform="translate(581.875,896.875) scale(3.605) rotate(-2)"><rect x="0.5" y="0.5" width="5" height="5"/></g>
<g transform="translate(602.875,896.875) scale(3.605) rotate(-6)"><rect x="0.5" y="0.5" width="5" height="5"/></g>
<g transform="translate(623.875,896.875) scale(3.605) rotate(1)"><rect x="0.5" y="0.5" width="5" height="5"/></g>
<g transform="translate(665.875,896.875) scale(3.605) rotate(-5)"><rect x="0.5" y="0.5" width="5" height="5"/></g>
<g transform="translate(707.875,896.875) scale(3.605) rotate(-2)"><rect x="0.5" y="0.5" width="5" height="5"/></g>
<g transform="translate(728.875,896.875) scale(3.605) rotate(3)"><rect x="0.5" y="0.5" width="5" height="5"/></g>
<g transform="translate(749.875,896.875) scale(3.605) rotate(0)"><rect x="0.5" y="0.5" width="5" height="5"/></g>
<g transform="translate(770.875,896.875) scale(3.605) rotate(6)"><rect x="0.5" y="0.5" width="5" height="5"/></g>
<g transform="translate(791.875,896.875) scale(3.605) rotate(1)"><rect x="0.5" y="0.5" width="5" height="5"/></g>
<g transform="translate(917.875,896.875) scale(3.605) rotate(4)"><rect x="0.5" y="0.5" width="5" height="5"/></g>
<g transform="translate(413.875,917.875) scale(3.605) rotate(-4)"><rect x="0.5" y="0.5" width="5" height="5"/></g>
<g transform="translate(518.875,917.875) scale(3.605) rotate(-2)"><rect x="0.5" y="0.5" width="5" height="5"/></g>
<g transform="translate(539.875,917.875) scale(3.605) rotate(-4)"><rect x="0.5" y="0.5" width="5" height="5"/></g>
<g transform="translate(560.875,917.875) scale(3.605) rotate(-1)"><rect x="0.5" y="0.5" width="5" height="5"/></g>
<g transform="translate(581.875,917.875) scale(3.605) rotate(4)"><rect x="0.5" y="0.5" width="5" height="5"/></g>
<g transform="translate(665.875,917.875) scale(3.605) rotate(8)"><rect x="0.5" y="0.5" width="5" height="5"/></g>
<g transform="translate(686.875,917.875) scale(3.605) rotate(-10)"><rect x="0.5" y="0.5" width="5" height="5"/></g>
<g transform="translate(707.875,917.875) scale(3.605) rotate(1)"><rect x="0.5" y="0.5" width="5" height="5"/></g>
<g transform="translate(791.875,917.875) scale(3.605) rotate(-7)"><rect x="0.5" y="0.5" width="5" height="5"/></g>
<g transform="translate(812.875,917.875) scale(3.605) rotate(2)"><rect x="0.5" y="0.5" width="5" height="5"/></g>
<g transform="translate(833.875,917.875) scale(3.605) rotate(2)"><rect x="0.5" y="0.5" width="5" height="5"/></g>
<g transform="translate(854.875,917.875) scale(3.605) rotate(6)"><rect x="0.5" y="0.5" width="5" height="5"/></g>
<g transform="translate(875.875,917.875) scale(3.605) rotate(-8)"><rect x="0.5" y="0.5" width="5" height="5"/></g>
<g transform="translate(896.875,917.875) scale(3.605) rotate(-5)"><rect x="0.5" y="0.5" width="5" height="5"/></g>
<g transform="translate(917.875,917.875) scale(3.605) rotate(6)"><rect x="0.5" y="0.5" width="5" height="5"/></g>
</g></g></mask></defs>
<rect width="926.46458333333" height="926.46458333333" fill="#ffffff" x="91.729166666667" y="91.729166666667" />
<g fill="#702963" transform="scale(45.864583333333)"><path d="M24,21h-1.7V1.7H1.7V21H0l1,2l-1,2h1v2h22v-2h1l-1-2L24,21z M2,2h20v19v1H2v-1V2z"/></g>
<rect x="0" y="0" width="1100.75" height="1237.34375" mask="url(#qrmask)" fill="#702963" />
<g><g transform="translate(161.875,161.875)"  fill="#702963"><g transform="scale(10.5)"><path d="M0,0v9.6C0,12,2,14,4.4,14H14V4.4C14,2,12,0,9.6,0H0z M12,12H4.8C3.3,12,2,10.7,2,9.2V2h7.2C10.7,2,12,3.3,12,4.8V12z"/></g></g>
<g transform="translate(203.875,203.875)"  fill="#702963"><g transform="scale(10.5)"><path d="M6,1.8C5.9,1,5.3,0.4,4.5,0.3C3.9,0.2,3.4,0.5,3,0.9C2.6,0.5,2.1,0.3,1.6,0.3C0.8,0.4,0.1,1,0,1.8 C0,2.3,0.1,2.7,0.3,3l0,0l0,0c0.1,0.1,0.2,0.2,0.3,0.3l1.9,2.2c0.3,0.3,0.7,0.3,0.9,0l1.8-1.9c0.1-0.1,0.3-0.3,0.4-0.5 C5.9,2.8,6.1,2.3,6,1.8z"/></g></g>
<g transform="translate(791.875,161.875)"  fill="#702963"><g transform="scale(10.5) rotate(90 7 7)"><path d="M0,0v9.6C0,12,2,14,4.4,14H14V4.4C14,2,12,0,9.6,0H0z M12,12H4.8C3.3,12,2,10.7,2,9.2V2h7.2C10.7,2,12,3.3,12,4.8V12z"/></g></g>
<g transform="translate(833.875,203.875)"  fill="#702963"><g transform="scale(10.5)"><path d="M6,1.8C5.9,1,5.3,0.4,4.5,0.3C3.9,0.2,3.4,0.5,3,0.9C2.6,0.5,2.1,0.3,1.6,0.3C0.8,0.4,0.1,1,0,1.8 C0,2.3,0.1,2.7,0.3,3l0,0l0,0c0.1,0.1,0.2,0.2,0.3,0.3l1.9,2.2c0.3,0.3,0.7,0.3,0.9,0l1.8-1.9c0.1-0.1,0.3-0.3,0.4-0.5 C5.9,2.8,6.1,2.3,6,1.8z"/></g></g>
<g transform="translate(161.875,791.875)"  fill="#702963"><g transform="scale(10.5) rotate(-90 7 7)"><path d="M0,0v9.6C0,12,2,14,4.4,14H14V4.4C14,2,12,0,9.6,0H0z M12,12H4.8C3.3,12,2,10.7,2,9.2V2h7.2C10.7,2,12,3.3,12,4.8V12z"/></g></g>
<g transform="translate(203.875,833.875)"  fill="#702963"><g transform="scale(10.5)"><path d="M6,1.8C5.9,1,5.3,0.4,4.5,0.3C3.9,0.2,3.4,0.5,3,0.9C2.6,0.5,2.1,0.3,1.6,0.3C0.8,0.4,0.1,1,0,1.8 C0,2.3,0.1,2.7,0.3,3l0,0l0,0c0.1,0.1,0.2,0.2,0.3,0.3l1.9,2.2c0.3,0.3,0.7,0.3,0.9,0l1.8-1.9c0.1-0.1,0.3-0.3,0.4-0.5 C5.9,2.8,6.1,2.3,6,1.8z"/></g></g></g>
<text fill="#FFFFFF" font-family="Arial, Helvetica, sans-serif" font-size="71.266506410256px" text-anchor="middle" x="525.625" y="142.07165310651" transform="translate(0,1009.0208333333)">Gefeliciteerd</text></svg>